# xmcd
#
# Track frame offsets: 
#        150
#        22430
#        50100
#        70792
#        94617
#        111282
#        127035
#        150020
#        164597
#        185810
#        208485
#        228702
#
# Disc length: 3425 seconds
#
# Revision: 0
# Processed by: cddbd v1.5.2PL0 Copyright (c) Steve Scherf et al.
# Submitted via: ExactAudioCopy v1.0b2
#
DISCID=b60d5f0c
DTITLE=Various Artist - Wattstax
DYEAR=1900
DGENRE=R&B
TTITLE0=The Staple Singers - Oh La De Da 
TTITLE1=The Staple Singers - I Like The Things About Me 
TTITLE2=The Staple Singers - Respect Yourself 
TTITLE3=The Staple Singers - I'll Take You There 
TTITLE4=Eddie Floyd - Knock On Wood 
TTITLE5=Eddie Floyd - Lay Your Loving On Me 
TTITLE6=Carla Thomas - I Like What You're Doing (To Me) 
TTITLE7=Carla Thomas - Gee Whiz 
TTITLE8=Carla Thomas - I Have A God Who Loves 
TTITLE9=Rufus Thomas - The Breakdown 
TTITLE10=Rufus Thomas - Do The Funky Chicken 
TTITLE11=Rufus Thomas - Do The Funky Penguin 
EXTD=
EXTT0=
EXTT1=
EXTT2=
EXTT3=
EXTT4=
EXTT5=
EXTT6=
EXTT7=
EXTT8=
EXTT9=
EXTT10=
EXTT11=
PLAYORDER=
